# Blender 3.6.1
# www.blender.org
mtllib card-spades-02.mtl
o Cube
v 14.400000 0.100000 -9.600000
v 14.400000 -0.100000 -9.600000
v 14.400000 0.100000 9.600000
v 14.400000 -0.100000 9.600000
v -14.400000 0.100000 -9.600000
v -14.400000 -0.100000 -9.600000
v -14.400000 0.100000 9.600000
v -14.400000 -0.100000 9.600000
vn -0.0000 1.0000 -0.0000
vn -0.0000 -0.0000 1.0000
vn -1.0000 -0.0000 -0.0000
vn -0.0000 -1.0000 -0.0000
vn 1.0000 -0.0000 -0.0000
vn -0.0000 -0.0000 -1.0000
vt 0.492188 0.996528
vt 0.492188 -0.003472
vt 1.002604 -0.003472
vt 1.002604 0.996528
vt 0.544271 -0.093750
vt 0.330729 -0.093750
vt 0.330729 -0.593750
vt 0.544271 -0.593750
vt 0.679688 -0.114583
vt 0.466146 -0.114583
vt 0.466146 -0.614583
vt 0.679688 -0.614583
vt 0.492188 0.010417
vt 0.007812 0.996528
vt 0.007812 0.010417
vt 0.523438 -0.107639
vt 0.309896 -0.107639
vt 0.309896 -0.607639
vt 0.523438 -0.607639
vt 0.768229 -0.114583
vt 0.554688 -0.114583
vt 0.554688 -0.614583
vt 0.768229 -0.614583
s 0
usemtl Material
f 1/1/1 5/2/1 7/3/1 3/4/1
f 4/5/2 3/6/2 7/7/2 8/8/2
f 8/9/3 7/10/3 5/11/3 6/12/3
f 6/13/4 2/1/4 4/14/4 8/15/4
f 2/16/5 1/17/5 3/18/5 4/19/5
f 6/20/6 5/21/6 1/22/6 2/23/6
