# Blender 3.6.1
# www.blender.org
mtllib card-spades-03.mtl
o Cube
v 14.400000 0.100000 -9.600000
v 14.400000 -0.100000 -9.600000
v 14.400000 0.100000 9.600000
v 14.400000 -0.100000 9.600000
v -14.400000 0.100000 -9.600000
v -14.400000 -0.100000 -9.600000
v -14.400000 0.100000 9.600000
v -14.400000 -0.100000 9.600000
vn -0.0000 1.0000 -0.0000
vn -0.0000 -0.0000 1.0000
vn -1.0000 -0.0000 -0.0000
vn -0.0000 -1.0000 -0.0000
vn 1.0000 -0.0000 -0.0000
vn -0.0000 -0.0000 -1.0000
vt 0.998928 0.008763
vt 0.998930 1.005847
vt 0.501072 1.005856
vt 0.501070 0.008771
vt 0.451952 1.118161
vt 0.701952 1.118161
vt 0.701952 1.368161
vt 0.451952 1.368161
vt 0.350104 -0.428515
vt 0.600104 -0.428515
vt 0.600104 -0.178515
vt 0.350104 -0.178515
vt 0.497783 0.003018
vt 0.497783 1.003018
vt 0.002082 1.003018
vt 0.002082 0.003018
vt 0.463268 1.200109
vt 0.713268 1.200109
vt 0.713268 1.450109
vt 0.463268 1.450109
vt 0.359157 -0.543658
vt 0.609157 -0.543658
vt 0.609157 -0.293658
vt 0.359157 -0.293658
s 0
usemtl Material
f 1/1/1 5/2/1 7/3/1 3/4/1
f 4/5/2 3/6/2 7/7/2 8/8/2
f 8/9/3 7/10/3 5/11/3 6/12/3
f 6/13/4 2/14/4 4/15/4 8/16/4
f 2/17/5 1/18/5 3/19/5 4/20/5
f 6/21/6 5/22/6 1/23/6 2/24/6
